<svg width="68.000000" height="28.000000" viewBox="0 0 68 28" fill="none" xmlns="http://www.w3.org/2000/svg" xmlns:xlink="http://www.w3.org/1999/xlink">
	<desc>
			Created with Pixso.
	</desc>
	<defs>
		<clipPath id="clip196_11243">
			<rect id="logo" rx="0.000000" width="67.000000" height="27.000000" transform="translate(0.500000 0.500000)" fill="white" fill-opacity="0"/>
		</clipPath>
	</defs>
	<rect id="logo" rx="0.000000" width="67.000000" height="27.000000" transform="translate(0.500000 0.500000)" fill="#FFFFFF" fill-opacity="0"/>
	<g clip-path="url(#clip196_11243)">
		<mask id="mask196_11245" mask-type="alpha" maskUnits="userSpaceOnUse" x="0.000000" y="12.044922" width="31.875000" height="15.955078">
			<path id="Vector" d="M0 12.04L31.87 12.04L31.87 28L0 28L0 12.04Z" fill="#FFFFFF" fill-opacity="1.000000" fill-rule="evenodd"/>
		</mask>
		<g mask="url(#mask196_11245)">
			<mask id="mask196_11249" mask-type="alpha" maskUnits="userSpaceOnUse" x="-1137.632812" y="-460.269531" width="1280.313477" height="665.572266">
				<path id="Vector" d="M-1137.63 -460.27L142.68 -460.27L142.68 205.3L-1137.63 205.3L-1137.63 -460.27Z" fill="#FFFFFF" fill-opacity="1.000000" fill-rule="evenodd"/>
			</mask>
			<g mask="url(#mask196_11249)">
				<mask id="mask196_11253" mask-type="alpha" maskUnits="userSpaceOnUse" x="0.000000" y="11.341797" width="32.633789" height="17.207031">
					<path id="Vector" d="M0 11.34L32.63 11.34L32.63 28.54L0 28.54L0 11.34Z" fill="#FFFFFF" fill-opacity="1.000000" fill-rule="evenodd"/>
				</mask>
				<g mask="url(#mask196_11253)">
					<mask id="mask196_11257" mask-type="alpha" maskUnits="userSpaceOnUse" x="0.078125" y="12.044922" width="31.797852" height="15.876953">
						<path id="Vector" d="M1.67 18.3C1.59 18.77 1.67 19.78 1.89 20.33C2.27 21.27 3.03 21.74 4.02 21.74C5.16 21.74 5.99 21.35 6.52 20.96L6.75 22.36C6.07 22.83 4.93 23.22 3.64 23.22C1.14 23.22 0.07 21.27 0.07 18.92C0.07 15.64 2.2 12.04 5.23 12.04C7.06 12.04 8.04 13.29 8.04 14.78C7.89 17.59 5.16 18.38 1.67 18.3ZM4.93 13.45C3.41 13.45 2.27 15.17 1.82 16.89C4.32 16.89 6.37 16.5 6.37 14.86C6.37 13.92 5.76 13.45 4.93 13.45ZM15.93 18.06C15.63 19.94 15.48 21.82 15.55 23.07L14.04 23.07C14.04 22.44 14.11 21.42 14.26 20.25L14.19 20.25C13.12 22.44 11.83 23.3 10.54 23.3C8.87 23.3 7.81 21.82 7.81 19.7C7.81 15.95 10.24 12.04 14.34 12.04C15.25 12.04 16.24 12.2 16.84 12.43L15.93 18.06ZM13.96 13.45C11.53 13.45 9.56 16.34 9.48 19.31C9.48 20.49 9.86 21.66 11.08 21.66C12.44 21.66 14.04 19.63 14.49 16.81L15.02 13.53C14.87 13.53 14.49 13.45 13.96 13.45ZM22.84 13.92C22.54 13.68 21.93 13.45 21.17 13.45C20.18 13.45 19.5 14.15 19.5 15.09C19.5 15.87 19.96 16.34 20.79 16.89C21.85 17.59 22.54 18.53 22.54 19.7C22.54 21.97 20.94 23.22 18.89 23.22C17.91 23.22 17 22.83 16.54 22.52L17 21.19C17.45 21.5 18.29 21.9 19.05 21.9C20.11 21.9 20.87 21.11 20.87 20.17C20.87 19.31 20.56 18.84 19.58 18.22C18.52 17.51 17.91 16.58 17.91 15.48C17.91 13.6 19.35 12.12 21.32 12.12C22.16 12.12 22.92 12.35 23.3 12.66L22.84 13.92ZM28.38 20.41C27.39 22.75 26.41 24.63 25.12 26.04C24.05 27.29 22.92 27.76 22.38 27.92L22.01 26.35C22.38 26.2 23.07 25.88 23.75 25.33C24.36 24.79 25.04 23.93 25.57 22.83C25.65 22.68 25.65 22.52 25.65 22.36L23.75 12.27L25.42 12.27L26.33 18.06C26.56 19.31 26.63 20.09 26.79 20.88L26.86 20.88C27.09 20.17 27.39 19.47 27.85 18.22L30.28 12.2L31.87 12.2L28.38 20.41Z" fill="#FFFFFF" fill-opacity="1.000000" fill-rule="evenodd"/>
					</mask>
					<g mask="url(#mask196_11257)">
						<mask id="mask196_11261" mask-type="alpha" maskUnits="userSpaceOnUse" x="0.000000" y="11.339844" width="32.633789" height="17.207031">
							<path id="Vector" d="M0 11.33L32.63 11.33L32.63 28.54L0 28.54L0 11.33Z" fill="#FFFFFF" fill-opacity="1.000000" fill-rule="evenodd"/>
						</mask>
						<g mask="url(#mask196_11261)">
							<path id="Vector" d="M-3.8 8.13L35.66 8.13L35.66 31.91L-3.8 31.91L-3.8 8.13Z" fill="#FFFFFF" fill-opacity="1.000000" fill-rule="evenodd"/>
						</g>
					</g>
				</g>
			</g>
		</g>
		<mask id="mask196_11266" mask-type="alpha" maskUnits="userSpaceOnUse" x="24.587891" y="6.400391" width="21.098633" height="18.939453">
			<path id="Vector" d="M28.15 25.33C28.15 25.33 32.4 18.14 33.16 14.78C33.92 11.41 33.99 9.61 31.03 9.3C28 8.99 24.58 9.3 24.58 9.3C24.58 9.3 29.36 6.17 35.66 6.41C42.04 6.57 45.68 9.3 45.68 9.3C45.68 9.3 44.32 9.85 42.11 10C39.91 10.24 39.08 10.71 39.23 13.29C39.38 15.87 40.29 17.67 40.29 17.67C40.29 17.67 36.73 15.25 34.53 17.67C32.32 20.09 31.87 21.19 30.58 22.75C29.36 24.32 28.15 25.33 28.15 25.33Z" fill="#FFFFFF" fill-opacity="1.000000" fill-rule="evenodd"/>
		</mask>
		<g mask="url(#mask196_11266)">
			<mask id="mask196_11270" mask-type="alpha" maskUnits="userSpaceOnUse" x="-1137.634766" y="-460.269531" width="1280.313477" height="665.572266">
				<path id="Vector" d="M-1137.63 -460.27L142.67 -460.27L142.67 205.3L-1137.63 205.3L-1137.63 -460.27Z" fill="#FFFFFF" fill-opacity="1.000000" fill-rule="evenodd"/>
			</mask>
			<g mask="url(#mask196_11270)">
				<path id="Vector" d="M20.79 2.42L49.55 2.42L49.55 29.25L20.79 29.25L20.79 2.42Z" fill="#136BB5" fill-opacity="1.000000" fill-rule="evenodd"/>
			</g>
		</g>
		<mask id="mask196_11275" mask-type="alpha" maskUnits="userSpaceOnUse" x="32.708008" y="0.000000" width="5.463867" height="5.630859">
			<path id="Vector" d="M35.44 0C36.95 0 38.17 1.25 38.17 2.81C38.17 4.37 36.95 5.63 35.44 5.63C33.92 5.63 32.7 4.37 32.7 2.81C32.7 1.25 33.99 0 35.44 0Z" fill="#FFFFFF" fill-opacity="1.000000" fill-rule="evenodd"/>
		</mask>
		<g mask="url(#mask196_11275)">
			<mask id="mask196_11279" mask-type="alpha" maskUnits="userSpaceOnUse" x="-1137.632812" y="-460.269531" width="1280.313477" height="665.572266">
				<path id="Vector" d="M-1137.63 -460.27L142.68 -460.27L142.68 205.3L-1137.63 205.3L-1137.63 -460.27Z" fill="#FFFFFF" fill-opacity="1.000000" fill-rule="evenodd"/>
			</mask>
			<g mask="url(#mask196_11279)">
				<path id="Vector" d="M28.91 -3.92L41.97 -3.92L41.97 9.54L28.91 9.54L28.91 -3.92Z" fill="#C58811" fill-opacity="1.000000" fill-rule="evenodd"/>
			</g>
		</g>
		<mask id="mask196_11284" mask-type="alpha" maskUnits="userSpaceOnUse" x="40.224609" y="12.044922" width="27.776367" height="15.955078">
			<path id="Vector" d="M40.22 12.04L68 12.04L68 28L40.22 28L40.22 12.04Z" fill="#FFFFFF" fill-opacity="1.000000" fill-rule="evenodd"/>
		</mask>
		<g mask="url(#mask196_11284)">
			<mask id="mask196_11288" mask-type="alpha" maskUnits="userSpaceOnUse" x="-1137.632812" y="-460.269531" width="1280.313477" height="665.572266">
				<path id="Vector" d="M-1137.63 -460.27L142.68 -460.27L142.68 205.3L-1137.63 205.3L-1137.63 -460.27Z" fill="#FFFFFF" fill-opacity="1.000000" fill-rule="evenodd"/>
			</mask>
			<g mask="url(#mask196_11288)">
				<mask id="mask196_11292" mask-type="alpha" maskUnits="userSpaceOnUse" x="40.224609" y="11.341797" width="28.080078" height="17.207031">
					<path id="Vector" d="M40.22 11.34L68.3 11.34L68.3 28.54L40.22 28.54L40.22 11.34Z" fill="#FFFFFF" fill-opacity="1.000000" fill-rule="evenodd"/>
				</mask>
				<g mask="url(#mask196_11292)">
					<mask id="mask196_11296" mask-type="alpha" maskUnits="userSpaceOnUse" x="40.230469" y="11.964844" width="27.777344" height="15.955078">
						<path id="Vector" d="M44.7 23.22C43.72 23.22 43.03 22.99 42.65 22.75L42.58 22.75L41.82 27.37L40.23 27.37L42.12 16.03C42.35 14.7 42.5 13.29 42.65 12.19L44.1 12.19L43.79 14.23L43.87 14.23C44.7 12.82 45.99 11.96 47.21 11.96C49.26 11.96 50.09 13.84 50.09 15.87C50.17 19.7 47.81 23.22 44.7 23.22ZM46.68 13.52C45.39 13.52 43.79 15.17 43.34 18.22L42.88 21.19C43.26 21.58 43.94 21.82 44.7 21.82C46.75 21.82 48.5 18.84 48.5 16.03C48.5 14.85 48.04 13.52 46.68 13.52ZM58.44 18.06C58.14 19.94 57.98 21.82 58.06 23.07L56.54 23.07C56.54 22.44 56.62 21.42 56.77 20.25L56.69 20.25C55.63 22.44 54.42 23.3 53.05 23.3C51.38 23.3 50.32 21.82 50.32 19.7C50.32 15.95 52.75 12.04 56.85 12.04C57.76 12.04 58.74 12.19 59.35 12.43L58.44 18.06ZM56.47 13.45C54.04 13.45 52.06 16.34 52.06 19.31C52.06 20.49 52.44 21.66 53.66 21.66C55.02 21.66 56.62 19.62 57.07 16.81L57.6 13.52C57.38 13.52 57 13.45 56.47 13.45ZM64.51 20.41C63.53 22.75 62.54 24.63 61.25 26.04C60.19 27.29 59.05 27.76 58.52 27.91L58.14 26.35C58.52 26.19 59.2 25.88 59.88 25.33C60.49 24.79 61.17 23.93 61.7 22.83C61.78 22.67 61.78 22.52 61.78 22.36L59.88 12.27L61.55 12.27L62.46 18.06C62.69 19.31 62.77 20.09 62.92 20.88L62.99 20.88C63.22 20.17 63.53 19.47 63.98 18.22L66.33 12.19L68 12.19L64.51 20.41Z" fill="#FFFFFF" fill-opacity="1.000000" fill-rule="evenodd"/>
					</mask>
					<g mask="url(#mask196_11296)">
						<mask id="mask196_11300" mask-type="alpha" maskUnits="userSpaceOnUse" x="40.230469" y="11.339844" width="28.080078" height="17.207031">
							<path id="Vector" d="M40.23 11.33L68.31 11.33L68.31 28.54L40.23 28.54L40.23 11.33Z" fill="#FFFFFF" fill-opacity="1.000000" fill-rule="evenodd"/>
						</mask>
						<g mask="url(#mask196_11300)">
							<path id="Vector" d="M36.43 8.13L71.79 8.13L71.79 31.91L36.43 31.91L36.43 8.13Z" fill="#FFFFFF" fill-opacity="1.000000" fill-rule="evenodd"/>
						</g>
					</g>
				</g>
			</g>
		</g>
	</g>
</svg>
