<svg width="24.000000" height="24.000000" viewBox="0 0 24 24" fill="none" xmlns="http://www.w3.org/2000/svg" xmlns:xlink="http://www.w3.org/1999/xlink">
	<desc>
			Created with Pixso.
	</desc>
	<defs>
		<clipPath id="clip31_2964">
			<rect id="icon=user-round-check" rx="0.000000" width="23.000000" height="23.000000" transform="translate(0.500000 0.500000)" fill="white" fill-opacity="0"/>
		</clipPath>
	</defs>
	<rect id="icon=user-round-check" rx="0.000000" width="23.000000" height="23.000000" transform="translate(0.500000 0.500000)" fill="#FFFFFF" fill-opacity="0"/>
	<g clip-path="url(#clip31_2964)">
		<path id="Vector" d="M2 21C2 19.46 2.44 17.95 3.27 16.66C4.11 15.36 5.3 14.34 6.7 13.7C8.11 13.07 9.66 12.85 11.19 13.08C12.71 13.31 14.13 13.98 15.29 15M10 13C7.23 13 5 10.76 5 8C5 5.23 7.23 3 10 3C12.76 3 15 5.23 15 8C15 10.76 12.76 13 10 13ZM16 19L18 21L22 17" stroke="#7A7A7E" stroke-opacity="1.000000" stroke-width="2.000000" stroke-linejoin="round" stroke-linecap="round"/>
	</g>
</svg>
