<svg width="24.000000" height="24.000000" viewBox="0 0 24 24" fill="none" xmlns="http://www.w3.org/2000/svg" xmlns:xlink="http://www.w3.org/1999/xlink">
	<desc>
			Created with Pixso.
	</desc>
	<defs>
		<clipPath id="clip31_2973">
			<rect id="icon=catalog" rx="0.000000" width="23.000000" height="23.000000" transform="translate(0.500000 0.500000)" fill="white" fill-opacity="0"/>
		</clipPath>
	</defs>
	<rect id="icon=catalog" rx="0.000000" width="23.000000" height="23.000000" transform="translate(0.500000 0.500000)" fill="#FFFFFF" fill-opacity="0"/>
	<g clip-path="url(#clip31_2973)">
		<path id="Vector" d="M20 7L17 7C16.46 7 15.96 6.78 15.58 6.41C15.21 6.03 15 5.53 15 5L15 2M7.58 17.41C7.21 17.03 7 16.53 7 16L7 4C7 3.46 7.21 2.96 7.58 2.58C7.96 2.21 8.46 2 9 2L16 2L20 6L20 16C20 16.53 19.78 17.03 19.41 17.41C19.03 17.78 18.53 18 18 18L9 18C8.46 18 7.96 17.78 7.58 17.41ZM3 7.59L3 20.4C3 20.82 3.16 21.23 3.46 21.53C3.76 21.83 4.17 22 4.6 22L14.39 22" stroke="#F1F1F1" stroke-opacity="1.000000" stroke-width="2.000000" stroke-linejoin="round" stroke-linecap="round"/>
	</g>
</svg>
