<svg width="24.000000" height="24.000000" viewBox="0 0 24 24" fill="none" xmlns="http://www.w3.org/2000/svg" xmlns:xlink="http://www.w3.org/1999/xlink">
	<desc>
			Created with Pixso.
	</desc>
	<defs>
		<clipPath id="clip31_2970">
			<rect id="icon=main" rx="0.000000" width="23.000000" height="23.000000" transform="translate(0.500000 0.500000)" fill="white" fill-opacity="0"/>
		</clipPath>
	</defs>
	<rect id="icon=main" rx="0.000000" width="23.000000" height="23.000000" transform="translate(0.500000 0.500000)" fill="#FFFFFF" fill-opacity="0"/>
	<g clip-path="url(#clip31_2970)">
		<path id="Vector" d="M15 21L15 13C15 12.73 14.89 12.48 14.7 12.29C14.51 12.1 14.26 12 14 12L10 12C9.73 12 9.48 12.1 9.29 12.29C9.1 12.48 9 12.73 9 13L9 21M3.18 9.15C3.3 8.89 3.48 8.66 3.7 8.47L10.7 2.47C11.06 2.16 11.52 2 12 2C12.47 2 12.93 2.16 13.29 2.47L20.29 8.47C20.51 8.66 20.69 8.89 20.81 9.15C20.93 9.42 21 9.7 21 10L21 19C21 19.52 20.78 20.03 20.41 20.41C20.03 20.78 19.53 21 19 21L5 21C4.46 21 3.96 20.78 3.58 20.41C3.21 20.03 3 19.52 3 19L3 10C3 9.7 3.06 9.42 3.18 9.15Z" stroke="#7A7A7E" stroke-opacity="1.000000" stroke-width="2.000000" stroke-linejoin="round" stroke-linecap="round"/>
	</g>
</svg>
