<svg width="24.000000" height="24.000000" viewBox="0 0 24 24" fill="none" xmlns="http://www.w3.org/2000/svg" xmlns:xlink="http://www.w3.org/1999/xlink">
	<desc>
			Created with Pixso.
	</desc>
	<defs>
		<clipPath id="clip31_2961">
			<rect id="icon=requests" rx="0.000000" width="23.000000" height="23.000000" transform="translate(0.500000 0.500000)" fill="white" fill-opacity="0"/>
		</clipPath>
	</defs>
	<rect id="icon=requests" rx="0.000000" width="23.000000" height="23.000000" transform="translate(0.500000 0.500000)" fill="#FFFFFF" fill-opacity="0"/>
	<g clip-path="url(#clip31_2961)">
		<path id="Vector" d="M14.72 21.91C14.81 21.97 14.91 22 15.01 22C15.11 21.99 15.21 21.96 15.29 21.9C15.37 21.84 15.43 21.75 15.47 21.66L21.97 2.66C22 2.57 22.01 2.47 21.99 2.38C21.96 2.29 21.92 2.2 21.85 2.14C21.79 2.07 21.7 2.03 21.61 2C21.52 1.99 21.42 1.99 21.33 2.02L2.33 8.52C2.24 8.56 2.15 8.62 2.09 8.7C2.03 8.78 2 8.88 2 8.98C1.99 9.08 2.02 9.18 2.08 9.27C2.13 9.36 2.21 9.42 2.31 9.46L10.24 12.64C10.49 12.74 10.72 12.89 10.91 13.08C11.1 13.27 11.25 13.5 11.35 13.75L14.53 21.68C14.57 21.78 14.63 21.86 14.72 21.91ZM21.85 2.14L10.91 13.08" stroke="#7A7A7E" stroke-opacity="1.000000" stroke-width="2.000000" stroke-linejoin="round" stroke-linecap="round"/>
	</g>
</svg>
