<svg width="24.000000" height="24.000000" viewBox="0 0 24 24" fill="none" xmlns="http://www.w3.org/2000/svg" xmlns:xlink="http://www.w3.org/1999/xlink">
	<desc>
			Created with Pixso.
	</desc>
	<defs>
		<clipPath id="clip6_9362">
			<rect id="icon=country" rx="0.000000" width="23.000000" height="23.000000" transform="translate(0.500000 0.500000)" fill="white" fill-opacity="0"/>
		</clipPath>
	</defs>
	<rect id="icon=country" rx="0.000000" width="23.000000" height="23.000000" transform="translate(0.500000 0.500000)" fill="#FFFFFF" fill-opacity="0"/>
	<g clip-path="url(#clip6_9362)">
		<path id="Vector" d="M15 5.76C15.31 5.76 15.61 5.69 15.89 5.55L19.55 3.72C19.7 3.64 19.87 3.61 20.04 3.61C20.21 3.62 20.38 3.67 20.52 3.76C20.67 3.85 20.79 3.98 20.87 4.13C20.95 4.28 21 4.44 21 4.61L21 17.38C21 17.56 20.94 17.75 20.85 17.9C20.75 18.06 20.61 18.19 20.44 18.27L15.89 20.55C15.61 20.69 15.31 20.76 15 20.76C14.68 20.76 14.38 20.69 14.1 20.55L9.89 18.44C9.61 18.3 9.31 18.23 9 18.23C8.68 18.23 8.38 18.3 8.1 18.44L4.44 20.27C4.29 20.35 4.12 20.39 3.95 20.38C3.78 20.37 3.61 20.32 3.47 20.23C3.32 20.14 3.2 20.01 3.12 19.86C3.04 19.71 3 19.55 3 19.38L3 6.61C3 6.43 3.05 6.25 3.14 6.09C3.24 5.93 3.38 5.8 3.55 5.72L8.1 3.44C8.38 3.3 8.68 3.23 9 3.23C9.31 3.23 9.61 3.3 9.89 3.44L14.1 5.55C14.38 5.69 14.68 5.76 15 5.76ZM15 5.76L15 20.76M9 3.23L9 18.23" stroke="#7A7A7E" stroke-opacity="1.000000" stroke-width="1.500000" stroke-linejoin="round" stroke-linecap="round"/>
	</g>
</svg>
