<svg width="32.000000" height="32.000000" viewBox="0 0 32 32" fill="none" xmlns="http://www.w3.org/2000/svg" xmlns:xlink="http://www.w3.org/1999/xlink">
	<desc>
			Created with Pixso.
	</desc>
	<defs>
		<clipPath id="clip196_10075">
			<rect id="Property 1=active" rx="0.000000" width="31.000000" height="31.000000" transform="translate(0.500000 0.500000)" fill="white" fill-opacity="0"/>
		</clipPath>
	</defs>
	<rect id="Property 1=active" rx="0.000000" width="31.000000" height="31.000000" transform="translate(0.500000 0.500000)" fill="#FFFFFF" fill-opacity="0"/>
	<g clip-path="url(#clip196_10075)">
		<path id="Vector" d="M25.33 18.66C27.32 16.71 29.33 14.38 29.33 11.33C29.33 9.38 28.56 7.52 27.18 6.14C25.81 4.77 23.94 4 22 4C19.65 4 18 4.66 16 6.66C14 4.66 12.34 4 10 4C8.05 4 6.19 4.77 4.81 6.14C3.43 7.52 2.66 9.38 2.66 11.33C2.66 14.4 4.66 16.73 6.66 18.66L16 28L25.33 18.66Z" fill="#0F6ABE" fill-opacity="1.000000" fill-rule="nonzero"/>
		<path id="Vector" d="M29.33 11.33C29.33 9.38 28.56 7.52 27.18 6.14C25.81 4.77 23.94 4 22 4C19.65 4 18 4.66 16 6.66C14 4.66 12.34 4 10 4C8.05 4 6.19 4.77 4.81 6.14C3.43 7.52 2.66 9.38 2.66 11.33C2.66 14.4 4.66 16.73 6.66 18.66L16 28L25.33 18.66C27.32 16.71 29.33 14.38 29.33 11.33Z" stroke="#0F6ABE" stroke-opacity="1.000000" stroke-width="2.000000" stroke-linejoin="round"/>
	</g>
</svg>
