<svg width="42.058228" height="42.003906" viewBox="0 0 42.0582 42.0039" fill="none" xmlns="http://www.w3.org/2000/svg" xmlns:xlink="http://www.w3.org/1999/xlink">
	<desc>
			Created with Pixso.
	</desc>
	<defs/>
	<path id="Vector" d="M19 27L23 27C24.06 27 25.08 26.57 25.83 25.82C26.58 25.07 27 24.06 27 23C27 21.93 26.58 20.92 25.83 20.17C25.08 19.42 24.06 19 23 19L17 19C15.8 19 14.8 19.4 14.2 20.2L3 31M11 39L14.2 36.2C14.8 35.4 15.8 35 17 35L25 35C27.2 35 29.2 34.2 30.6 32.59L39.8 23.79C40.57 23.07 41.02 22.06 41.05 21C41.08 19.94 40.69 18.91 39.96 18.13C39.23 17.36 38.22 16.91 37.16 16.88C36.1 16.85 35.07 17.25 34.3 17.98L25.9 25.78M1 29L13 41M29 20.79C25.8 20.79 23.2 18.2 23.2 15C23.2 11.79 25.8 9.2 29 9.2C32.2 9.2 34.8 11.79 34.8 15C34.8 18.2 32.2 20.79 29 20.79ZM9 13C5.69 13 3 10.31 3 7C3 3.68 5.69 1 9 1C12.31 1 15 3.68 15 7C15 10.31 12.31 13 9 13Z" stroke="#F1F1F1" stroke-opacity="1.000000" stroke-width="2.000000" stroke-linejoin="round" stroke-linecap="round"/>
</svg>
