<svg width="13.000000" height="14.000000" viewBox="0 0 13 14" fill="none" xmlns="http://www.w3.org/2000/svg" xmlns:xlink="http://www.w3.org/1999/xlink">
	<desc>
			Created with Pixso.
	</desc>
	<defs/>
	<path id="Vector" d="M8.5 13.5L8.5 8.02C8.5 7.84 8.42 7.67 8.3 7.54C8.17 7.41 8 7.34 7.83 7.34L5.16 7.34C4.99 7.34 4.82 7.41 4.69 7.54C4.57 7.67 4.5 7.84 4.5 8.02L4.5 13.5M0.62 5.39C0.7 5.21 0.82 5.05 0.97 4.92L5.63 0.82C5.87 0.61 6.18 0.5 6.5 0.5C6.81 0.5 7.12 0.61 7.36 0.82L12.02 4.92C12.17 5.05 12.29 5.21 12.37 5.39C12.45 5.57 12.5 5.77 12.5 5.97L12.5 12.13C12.5 12.49 12.35 12.84 12.1 13.09C11.85 13.35 11.52 13.5 11.16 13.5L1.83 13.5C1.47 13.5 1.14 13.35 0.89 13.09C0.64 12.84 0.5 12.49 0.5 12.13L0.5 5.97C0.5 5.77 0.54 5.57 0.62 5.39Z" stroke="#7A7A7E" stroke-opacity="1.000000" stroke-width="1.000000" stroke-linejoin="round" stroke-linecap="round"/>
</svg>
