<svg width="24.000000" height="24.000000" viewBox="0 0 24 24" fill="none" xmlns="http://www.w3.org/2000/svg" xmlns:xlink="http://www.w3.org/1999/xlink">
	<desc>
			Created with Pixso.
	</desc>
	<defs>
		<clipPath id="clip6_9284">
			<rect id="icon=map" rx="0.000000" width="23.000000" height="23.000000" transform="translate(0.500000 0.500000)" fill="white" fill-opacity="0"/>
		</clipPath>
	</defs>
	<rect id="icon=map" rx="0.000000" width="23.000000" height="23.000000" transform="translate(0.500000 0.500000)" fill="#FFFFFF" fill-opacity="0"/>
	<g clip-path="url(#clip6_9284)">
		<path id="Vector" d="M12.6 21.79C12.42 21.92 12.21 22 12 22C11.78 22 11.57 21.92 11.39 21.79C9.53 20.19 4 14.99 4 10C4 7.87 4.84 5.84 6.34 4.34C7.84 2.84 9.87 2 12 2C14.12 2 16.15 2.84 17.65 4.34C19.15 5.84 20 7.87 20 10C20 14.99 14.46 20.19 12.6 21.79ZM12 13C10.34 13 9 11.65 9 10C9 8.34 10.34 7 12 7C13.65 7 15 8.34 15 10C15 11.65 13.65 13 12 13Z" stroke="#7A7A7E" stroke-opacity="1.000000" stroke-width="1.500000" stroke-linejoin="round"/>
	</g>
</svg>
