<svg width="20.000000" height="20.000000" viewBox="0 0 20 20" fill="none" xmlns="http://www.w3.org/2000/svg" xmlns:xlink="http://www.w3.org/1999/xlink">
	<desc>
			Created with Pixso.
	</desc>
	<defs>
		<clipPath id="clip199_17642">
			<rect id="icons" rx="0.000000" width="19.000000" height="19.000000" transform="translate(0.500000 0.500000)" fill="white" fill-opacity="0"/>
		</clipPath>
	</defs>
	<rect id="icons" rx="0.000000" width="19.000000" height="19.000000" transform="translate(0.500000 0.500000)" fill="#FFFFFF" fill-opacity="0"/>
	<g clip-path="url(#clip199_17642)">
		<path id="Vector" d="M18.33 7.08C18.33 5.86 17.85 4.7 16.99 3.84C16.13 2.98 14.96 2.5 13.75 2.5C12.28 2.5 11.25 2.91 10 4.16C8.75 2.91 7.71 2.5 6.25 2.5C5.03 2.5 3.86 2.98 3 3.84C2.14 4.7 1.66 5.86 1.66 7.08C1.66 9 2.91 10.45 4.16 11.66L10 17.5L15.83 11.66C17.07 10.44 18.33 8.99 18.33 7.08Z" stroke="#FFFFFF" stroke-opacity="1.000000" stroke-width="1.500000" stroke-linejoin="round"/>
	</g>
</svg>
