<svg width="24.000000" height="24.000000" viewBox="0 0 24 24" fill="none" xmlns="http://www.w3.org/2000/svg" xmlns:xlink="http://www.w3.org/1999/xlink">
	<desc>
			Created with Pixso.
	</desc>
	<defs>
		<clipPath id="clip6_9257">
			<rect id="icon=map-pinned" rx="0.000000" width="23.000000" height="23.000000" transform="translate(0.500000 0.500000)" fill="white" fill-opacity="0"/>
		</clipPath>
	</defs>
	<rect id="icon=map-pinned" rx="0.000000" width="23.000000" height="23.000000" transform="translate(0.500000 0.500000)" fill="#FFFFFF" fill-opacity="0"/>
	<g clip-path="url(#clip6_9257)">
		<path id="Vector" d="M12.6 16.79C12.43 16.92 12.21 17 12 17C11.78 17 11.56 16.92 11.39 16.79C9.86 15.42 6 11.61 6 8C6 6.4 6.63 4.88 7.75 3.75C8.88 2.63 10.4 2 12 2C13.59 2 15.11 2.63 16.24 3.75C17.36 4.88 18 6.4 18 8C18 11.61 14.13 15.42 12.6 16.79ZM12 10C10.89 10 10 9.1 10 8C10 6.89 10.89 6 12 6C13.1 6 14 6.89 14 8C14 9.1 13.1 10 12 10ZM8.71 14L5 14C4.79 14 4.58 14.06 4.41 14.18C4.24 14.31 4.12 14.48 4.05 14.68L2.05 20.68C2 20.83 1.98 20.99 2.01 21.15C2.03 21.3 2.09 21.45 2.18 21.58C2.28 21.71 2.4 21.81 2.54 21.88C2.68 21.96 2.84 22 3 22L21 22C21.15 22 21.31 21.96 21.45 21.88C21.59 21.81 21.71 21.71 21.81 21.58C21.9 21.45 21.96 21.3 21.98 21.15C22.01 20.99 21.99 20.83 21.94 20.68L19.94 14.68C19.88 14.48 19.75 14.31 19.58 14.18C19.41 14.06 19.2 14 18.99 14L15.28 14" stroke="#7A7A7E" stroke-opacity="1.000000" stroke-width="1.500000" stroke-linejoin="round" stroke-linecap="round"/>
	</g>
</svg>
