<svg width="16.000000" height="16.000000" viewBox="0 0 16 16" fill="none" xmlns="http://www.w3.org/2000/svg" xmlns:xlink="http://www.w3.org/1999/xlink">
	<desc>
			Created with Pixso.
	</desc>
	<defs>
		<clipPath id="clip15_5803">
			<rect id="icons" rx="0.000000" width="15.000000" height="15.000000" transform="translate(0.500000 0.500000)" fill="white" fill-opacity="0"/>
		</clipPath>
	</defs>
	<rect id="icons" rx="0.000000" width="15.000000" height="15.000000" transform="translate(0.500000 0.500000)" fill="#FFFFFF" fill-opacity="0"/>
	<g clip-path="url(#clip15_5803)">
		<path id="Vector" d="M8 14.66C4.31 14.66 1.33 11.68 1.33 8C1.33 4.31 4.31 1.33 8 1.33C11.68 1.33 14.66 4.31 14.66 8C14.66 11.68 11.68 14.66 8 14.66ZM10.66 5.33L6.66 5.33C6.31 5.33 5.97 5.47 5.72 5.72C5.47 5.97 5.33 6.31 5.33 6.66C5.33 7.01 5.47 7.35 5.72 7.6C5.97 7.85 6.31 8 6.66 8L9.33 8C9.68 8 10.02 8.14 10.27 8.39C10.52 8.64 10.66 8.97 10.66 9.33C10.66 9.68 10.52 10.02 10.27 10.27C10.02 10.52 9.68 10.66 9.33 10.66L5.33 10.66M8 12L8 4" stroke="#FFFFFF" stroke-opacity="1.000000" stroke-width="1.000000" stroke-linejoin="round" stroke-linecap="round"/>
	</g>
</svg>
