<svg width="24.000000" height="24.000000" viewBox="0 0 24 24" fill="none" xmlns="http://www.w3.org/2000/svg" xmlns:xlink="http://www.w3.org/1999/xlink">
	<desc>
			Created with Pixso.
	</desc>
	<defs>
		<clipPath id="clip196_11195">
			<rect id="icons" rx="0.000000" width="23.000000" height="23.000000" transform="translate(0.500000 0.500000)" fill="white" fill-opacity="0"/>
		</clipPath>
	</defs>
	<rect id="icons" rx="0.000000" width="23.000000" height="23.000000" transform="translate(0.500000 0.500000)" fill="#FFFFFF" fill-opacity="0"/>
	<g clip-path="url(#clip196_11195)">
		<path id="Vector" d="M12 22C6.47 22 2 17.52 2 12C2 6.47 6.47 2 12 2C17.52 2 22 6.47 22 12C22 17.52 17.52 22 12 22ZM16 8L10 8C9.46 8 8.96 8.21 8.58 8.58C8.21 8.96 8 9.46 8 10C8 10.53 8.21 11.03 8.58 11.41C8.96 11.78 9.46 12 10 12L14 12C14.53 12 15.03 12.21 15.41 12.58C15.78 12.96 16 13.46 16 14C16 14.53 15.78 15.03 15.41 15.41C15.03 15.78 14.53 16 14 16L8 16M12 18L12 6" stroke="#7A7A7E" stroke-opacity="1.000000" stroke-width="1.500000" stroke-linejoin="round" stroke-linecap="round"/>
	</g>
</svg>
