<svg width="28.000000" height="28.000000" viewBox="0 0 28 28" fill="none" xmlns="http://www.w3.org/2000/svg" xmlns:xlink="http://www.w3.org/1999/xlink">
	<desc>
			Created with Pixso.
	</desc>
	<defs>
		<clipPath id="clip196_10386">
			<rect id="Property 1=bell non active" rx="0.000000" width="27.000000" height="27.000000" transform="translate(0.500000 0.500000)" fill="white" fill-opacity="0"/>
		</clipPath>
	</defs>
	<rect id="Property 1=bell non active" rx="0.000000" width="27.000000" height="27.000000" transform="translate(0.500000 0.500000)" fill="#FFFFFF" fill-opacity="0"/>
	<g clip-path="url(#clip196_10386)">
		<path id="Vector" d="M9.04 4.38C10.36 3.07 12.14 2.33 14 2.33C15.85 2.33 17.63 3.07 18.95 4.38C20.26 5.69 21 7.47 21 9.33C21 17.5 24.5 19.83 24.5 19.83L3.5 19.83C3.5 19.83 7 17.5 7 9.33C7 7.47 7.73 5.69 9.04 4.38ZM12.01 24.5C12.21 24.85 12.49 25.15 12.84 25.35C13.19 25.56 13.59 25.67 14 25.67C14.4 25.67 14.8 25.56 15.15 25.35C15.5 25.15 15.78 24.85 15.98 24.5" stroke="#7A7A7E" stroke-opacity="1.000000" stroke-width="2.000000" stroke-linejoin="round" stroke-linecap="round"/>
	</g>
</svg>
