<svg width="31.000000" height="31.000000" viewBox="0 0 31 31" fill="none" xmlns="http://www.w3.org/2000/svg" xmlns:xlink="http://www.w3.org/1999/xlink">
	<desc>
			Created with Pixso.
	</desc>
	<defs/>
	<rect id="Property 1=Bell active" rx="0.000000" width="27.000000" height="27.000000" transform="translate(3.500000 3.500000)" fill="#FFFFFF" fill-opacity="0"/>
	<path id="Vector" d="M12.04 7.38C13.36 6.07 15.14 5.33 17 5.33C18.85 5.33 20.63 6.07 21.95 7.38C23.26 8.69 24 10.47 24 12.33C24 20.5 27.5 22.83 27.5 22.83L6.5 22.83C6.5 22.83 10 20.5 10 12.33C10 10.47 10.73 8.69 12.04 7.38ZM15.01 27.5C15.21 27.85 15.49 28.15 15.84 28.35C16.19 28.56 16.59 28.67 17 28.67C17.4 28.67 17.8 28.56 18.15 28.35C18.5 28.15 18.78 27.85 18.98 27.5" stroke="#7A7A7E" stroke-opacity="1.000000" stroke-width="2.000000" stroke-linejoin="round" stroke-linecap="round"/>
	<rect id="number" rx="7.000000" width="16.000000" height="14.000000" transform="translate(0.500000 0.500000)" fill="#C58811" fill-opacity="1.000000"/>
	<path id="+5" d="M10.02 11Q10.55 11.15 11.11 11.15Q11.89 11.15 12.48 10.86C12.87 10.67 13.18 10.4 13.4 10.06Q13.44 9.99 13.48 9.92Q13.73 9.44 13.73 8.84Q13.73 8.17 13.44 7.69Q13.43 7.67 13.41 7.65C13.2 7.32 12.92 7.07 12.55 6.9Q12.01 6.63 11.32 6.63C11.15 6.63 10.98 6.65 10.8 6.68C10.63 6.71 10.46 6.75 10.29 6.81L10.5 4.98L13.56 4.98L13.56 4L9.7 4.01L9.34 7.31L9.8 7.8Q10.13 7.66 10.45 7.59C10.66 7.54 10.86 7.52 11.06 7.52C11.37 7.52 11.64 7.57 11.88 7.67C12.12 7.77 12.31 7.92 12.45 8.12C12.59 8.31 12.65 8.53 12.65 8.8C12.65 9.09 12.59 9.34 12.46 9.54C12.33 9.74 12.14 9.9 11.9 10.01C11.66 10.12 11.38 10.17 11.05 10.17C10.73 10.17 10.4 10.12 10.08 10.02C9.76 9.91 9.49 9.76 9.26 9.56L8.9 10.47Q9.28 10.78 9.87 10.96Q9.95 10.98 10.02 11ZM4.82 8.07L4.82 10.1L5.66 10.1L5.66 8.07L7.79 8.07L7.79 7.26L5.66 7.26L5.66 5.23L4.82 5.23L4.82 7.26L2.69 7.26L2.69 8.07L4.82 8.07Z" fill="#FFFFFF" fill-opacity="1.000000" fill-rule="evenodd"/>
</svg>
