<svg width="20.000000" height="20.000000" viewBox="0 0 20 20" fill="none" xmlns="http://www.w3.org/2000/svg" xmlns:xlink="http://www.w3.org/1999/xlink">
	<desc>
			Created with Pixso.
	</desc>
	<defs>
		<clipPath id="clip199_17639">
			<rect id="icons" rx="0.000000" width="19.000000" height="19.000000" transform="translate(0.500000 0.500000)" fill="white" fill-opacity="0"/>
		</clipPath>
	</defs>
	<rect id="icons" rx="0.000000" width="19.000000" height="19.000000" transform="translate(0.500000 0.500000)" fill="#FFFFFF" fill-opacity="0"/>
	<g clip-path="url(#clip199_17639)">
		<path id="Vector" d="M18.33 4.01C18.33 3.39 18.08 2.79 17.64 2.35C17.2 1.91 16.6 1.66 15.98 1.66C15.36 1.66 14.76 1.91 14.32 2.35L3.2 13.48C3 13.67 2.86 13.91 2.78 14.17L1.68 17.79C1.66 17.87 1.66 17.94 1.68 18.01C1.69 18.09 1.73 18.16 1.79 18.21C1.84 18.26 1.91 18.3 1.98 18.32C2.05 18.33 2.13 18.33 2.2 18.31L5.83 17.21C6.09 17.13 6.33 16.99 6.52 16.8L17.64 5.67C18.08 5.23 18.33 4.64 18.33 4.01Z" stroke="#FFFFFF" stroke-opacity="1.000000" stroke-width="1.500000" stroke-linejoin="round"/>
	</g>
</svg>
