<svg width="20.000000" height="20.000000" viewBox="0 0 20 20" fill="none" xmlns="http://www.w3.org/2000/svg" xmlns:xlink="http://www.w3.org/1999/xlink">
	<desc>
			Created with Pixso.
	</desc>
	<defs>
		<clipPath id="clip199_17645">
			<rect id="icons" rx="0.000000" width="19.000000" height="19.000000" transform="translate(0.500000 0.500000)" fill="white" fill-opacity="0"/>
		</clipPath>
	</defs>
	<rect id="icons" rx="0.000000" width="19.000000" height="19.000000" transform="translate(0.500000 0.500000)" fill="#FFFFFF" fill-opacity="0"/>
	<g clip-path="url(#clip199_17645)">
		<path id="Vector" d="M1.66 17.5C1.66 16.21 2.03 14.96 2.73 13.88C3.43 12.8 4.42 11.95 5.59 11.42C6.76 10.89 8.05 10.71 9.32 10.9C10.59 11.09 11.78 11.65 12.74 12.5M8.33 10.83C6.03 10.83 4.16 8.96 4.16 6.66C4.16 4.36 6.03 2.5 8.33 2.5C10.63 2.5 12.5 4.36 12.5 6.66C12.5 8.96 10.63 10.83 8.33 10.83ZM13.33 15.83L15 17.5L18.33 14.16" stroke="#FFFFFF" stroke-opacity="1.000000" stroke-width="1.500000" stroke-linejoin="round" stroke-linecap="round"/>
	</g>
</svg>
