<svg width="41.777283" height="41.857422" viewBox="0 0 41.7773 41.8574" fill="none" xmlns="http://www.w3.org/2000/svg" xmlns:xlink="http://www.w3.org/1999/xlink">
	<desc>
			Created with Pixso.
	</desc>
	<defs/>
	<path id="Vector" d="M40.77 36.83C40.77 37.39 40.66 37.94 40.44 38.45C40.21 38.96 39.89 39.42 39.48 39.8C39.06 40.18 38.58 40.46 38.05 40.64C37.52 40.82 36.97 40.89 36.41 40.83C30.26 40.17 24.34 38.06 19.15 34.7C14.32 31.62 10.22 27.53 7.15 22.7C3.77 17.48 1.67 11.54 1.01 5.36C0.96 4.8 1.03 4.25 1.2 3.72C1.38 3.19 1.67 2.71 2.04 2.3C2.41 1.89 2.87 1.56 3.38 1.34C3.89 1.11 4.44 1 4.99 1L10.99 1C11.96 0.99 12.9 1.33 13.64 1.96C14.37 2.6 14.86 3.47 14.99 4.44C15.24 6.36 15.71 8.24 16.39 10.06C16.66 10.77 16.72 11.55 16.56 12.3C16.4 13.04 16.03 13.73 15.49 14.28L12.95 16.82C15.8 21.82 19.94 25.97 24.95 28.82L27.49 26.28C28.03 25.74 28.72 25.37 29.47 25.21C30.22 25.05 31 25.11 31.71 25.37C33.53 26.05 35.41 26.52 37.33 26.78C38.3 26.91 39.19 27.4 39.82 28.15C40.46 28.9 40.8 29.85 40.77 30.83L40.77 36.83Z" stroke="#F1F1F1" stroke-opacity="1.000000" stroke-width="2.000000" stroke-linejoin="round"/>
</svg>
