<svg width="71.000000" height="20.000000" viewBox="0 0 71 20" fill="none" xmlns="http://www.w3.org/2000/svg" xmlns:xlink="http://www.w3.org/1999/xlink">
	<desc>
			Created with Pixso.
	</desc>
	<defs>
		<clipPath id="clip196_11233">
			<rect id="index_logo" rx="0.000000" width="70.000000" height="19.000000" transform="translate(0.500000 0.500000)" fill="white" fill-opacity="0"/>
		</clipPath>
	</defs>
	<rect id="index_logo" rx="0.000000" width="70.000000" height="19.000000" transform="translate(0.500000 0.500000)" fill="#FFFFFF" fill-opacity="0"/>
	<g clip-path="url(#clip196_11233)">
		<path id="Vector" d="M2.55 17.27L2.55 17.61L0.75 17.61L0.75 17.27L2.55 17.27ZM0.82 15.95L0.82 19.03L0.38 19.03L0.38 15.95L0.82 15.95ZM2.94 15.95L2.94 19.03L2.5 19.03L2.5 15.95L2.94 15.95ZM5.12 18.64L5.12 17.46C5.12 17.37 5.1 17.29 5.06 17.23C5.02 17.16 4.96 17.1 4.88 17.07C4.81 17.03 4.71 17.01 4.6 17.01C4.49 17.01 4.4 17.03 4.31 17.06C4.24 17.1 4.17 17.14 4.13 17.2C4.08 17.25 4.06 17.31 4.06 17.38L3.64 17.38C3.64 17.29 3.66 17.21 3.71 17.13C3.75 17.05 3.82 16.98 3.9 16.91C3.99 16.85 4.09 16.79 4.21 16.76C4.34 16.72 4.47 16.7 4.62 16.7C4.8 16.7 4.96 16.73 5.1 16.78C5.24 16.84 5.34 16.92 5.42 17.04C5.5 17.15 5.54 17.29 5.54 17.46L5.54 18.53C5.54 18.61 5.55 18.69 5.56 18.77C5.58 18.86 5.6 18.93 5.63 19L5.63 19.03L5.19 19.03C5.16 18.99 5.15 18.93 5.14 18.85C5.12 18.77 5.12 18.7 5.12 18.64ZM5.19 17.64L5.19 17.92L4.77 17.92C4.65 17.92 4.54 17.93 4.45 17.94C4.35 17.96 4.27 17.99 4.21 18.02C4.14 18.06 4.09 18.1 4.06 18.16C4.03 18.21 4.01 18.27 4.01 18.34C4.01 18.41 4.03 18.48 4.06 18.54C4.1 18.6 4.15 18.64 4.22 18.68C4.29 18.71 4.38 18.73 4.48 18.73C4.61 18.73 4.73 18.71 4.83 18.65C4.93 18.6 5 18.54 5.06 18.47C5.12 18.39 5.15 18.32 5.16 18.25L5.34 18.44C5.33 18.5 5.3 18.57 5.25 18.64C5.2 18.71 5.14 18.78 5.06 18.85C4.98 18.91 4.89 18.97 4.78 19.01C4.68 19.05 4.56 19.07 4.42 19.07C4.25 19.07 4.11 19.04 3.98 18.98C3.86 18.92 3.76 18.84 3.69 18.74C3.62 18.64 3.59 18.52 3.59 18.39C3.59 18.27 3.61 18.16 3.66 18.07C3.71 17.98 3.79 17.9 3.89 17.83C3.98 17.77 4.1 17.72 4.24 17.69C4.38 17.66 4.53 17.64 4.7 17.64L5.19 17.64ZM6.24 19.03L6.24 16.74L6.66 16.74L6.66 18.71L7.8 18.71L7.8 16.74L8.23 16.74L8.23 19.03L6.24 19.03ZM8.52 18.71L8.48 19.71L8.1 19.71L8.1 19.03L7.78 19.03L7.78 18.71L8.52 18.71ZM9.44 16.74L9.44 19.03L9.01 19.03L9.01 16.74L9.44 16.74ZM8.98 16.13C8.98 16.07 9 16.01 9.04 15.97C9.09 15.93 9.15 15.91 9.23 15.91C9.31 15.91 9.37 15.93 9.42 15.97C9.46 16.01 9.48 16.07 9.48 16.13C9.48 16.19 9.46 16.25 9.42 16.29C9.37 16.33 9.31 16.35 9.23 16.35C9.15 16.35 9.09 16.33 9.04 16.29C9 16.25 8.98 16.19 8.98 16.13ZM10.01 17.91L10.01 17.86C10.01 17.7 10.03 17.54 10.08 17.4C10.14 17.26 10.21 17.14 10.31 17.03C10.41 16.93 10.52 16.84 10.66 16.79C10.8 16.73 10.96 16.7 11.13 16.7C11.3 16.7 11.46 16.73 11.6 16.79C11.74 16.84 11.86 16.93 11.95 17.03C12.05 17.14 12.13 17.26 12.18 17.4C12.23 17.54 12.26 17.7 12.26 17.86L12.26 17.91C12.26 18.08 12.23 18.23 12.18 18.37C12.13 18.51 12.05 18.64 11.95 18.74C11.86 18.84 11.74 18.93 11.6 18.99C11.46 19.04 11.31 19.07 11.13 19.07C10.96 19.07 10.8 19.04 10.66 18.99C10.53 18.93 10.41 18.84 10.31 18.74C10.21 18.64 10.14 18.51 10.08 18.37C10.03 18.23 10.01 18.08 10.01 17.91ZM10.43 17.86L10.43 17.91C10.43 18.02 10.44 18.13 10.47 18.24C10.5 18.33 10.54 18.42 10.6 18.5C10.66 18.58 10.74 18.64 10.82 18.69C10.91 18.73 11.02 18.75 11.13 18.75C11.25 18.75 11.35 18.73 11.44 18.69C11.53 18.64 11.6 18.58 11.66 18.5C11.71 18.42 11.76 18.33 11.79 18.24C11.82 18.13 11.83 18.02 11.83 17.91L11.83 17.86C11.83 17.75 11.82 17.64 11.79 17.54C11.76 17.44 11.71 17.35 11.65 17.27C11.6 17.19 11.52 17.13 11.43 17.09C11.35 17.04 11.25 17.02 11.13 17.02C11.01 17.02 10.91 17.04 10.82 17.09C10.74 17.13 10.66 17.19 10.6 17.27C10.54 17.35 10.5 17.44 10.47 17.54C10.44 17.64 10.43 17.75 10.43 17.86ZM14.47 17.73L14.47 18.05L13.16 18.05L13.16 17.73L14.47 17.73ZM13.25 16.74L13.25 19.03L12.83 19.03L12.83 16.74L13.25 16.74ZM14.81 16.74L14.81 19.03L14.38 19.03L14.38 16.74L14.81 16.74ZM16.95 18.64L16.95 17.46C16.95 17.37 16.93 17.29 16.89 17.23C16.85 17.16 16.79 17.1 16.71 17.07C16.64 17.03 16.54 17.01 16.43 17.01C16.32 17.01 16.23 17.03 16.15 17.06C16.07 17.1 16 17.14 15.96 17.2C15.91 17.25 15.89 17.31 15.89 17.38L15.47 17.38C15.47 17.29 15.49 17.21 15.54 17.13C15.58 17.05 15.65 16.98 15.73 16.91C15.82 16.85 15.92 16.79 16.05 16.76C16.17 16.72 16.3 16.7 16.45 16.7C16.63 16.7 16.79 16.73 16.93 16.78C17.07 16.84 17.17 16.92 17.25 17.04C17.33 17.15 17.37 17.29 17.37 17.46L17.37 18.53C17.37 18.61 17.38 18.69 17.39 18.77C17.41 18.86 17.43 18.93 17.46 19L17.46 19.03L17.02 19.03C17 18.99 16.98 18.93 16.97 18.85C16.95 18.77 16.95 18.7 16.95 18.64ZM17.02 17.64L17.03 17.92L16.6 17.92C16.48 17.92 16.37 17.93 16.28 17.94C16.18 17.96 16.1 17.99 16.04 18.02C15.97 18.06 15.93 18.1 15.89 18.16C15.86 18.21 15.84 18.27 15.84 18.34C15.84 18.41 15.86 18.48 15.89 18.54C15.93 18.6 15.98 18.64 16.05 18.68C16.12 18.71 16.21 18.73 16.32 18.73C16.44 18.73 16.56 18.71 16.66 18.65C16.76 18.6 16.84 18.54 16.89 18.47C16.95 18.39 16.99 18.32 16.99 18.25L17.17 18.44C17.16 18.5 17.13 18.57 17.08 18.64C17.04 18.71 16.97 18.78 16.89 18.85C16.82 18.91 16.72 18.97 16.61 19.01C16.51 19.05 16.39 19.07 16.25 19.07C16.09 19.07 15.94 19.04 15.81 18.98C15.69 18.92 15.59 18.84 15.52 18.74C15.45 18.64 15.42 18.52 15.42 18.39C15.42 18.27 15.44 18.16 15.49 18.07C15.55 17.98 15.62 17.9 15.72 17.83C15.82 17.77 15.93 17.72 16.07 17.69C16.21 17.66 16.36 17.64 16.53 17.64L17.02 17.64ZM19.69 16.74L19.69 17.06L18.49 17.06L18.49 16.74L19.69 16.74ZM20.06 16.74L20.06 19.03L19.64 19.03L19.64 16.74L20.06 16.74ZM18.39 16.74L18.82 16.74L18.75 17.84C18.74 18.02 18.72 18.17 18.7 18.3C18.68 18.43 18.64 18.54 18.6 18.63C18.56 18.73 18.51 18.8 18.45 18.86C18.39 18.92 18.32 18.96 18.24 18.99C18.15 19.02 18.06 19.03 17.95 19.03L17.81 19.03L17.81 18.69L17.91 18.68C17.97 18.67 18.03 18.66 18.07 18.64C18.12 18.61 18.16 18.58 18.19 18.53C18.22 18.48 18.25 18.42 18.27 18.35C18.29 18.27 18.31 18.18 18.32 18.08C18.33 17.98 18.34 17.86 18.34 17.72L18.39 16.74ZM21.09 17.53L21.83 17.53C22.03 17.53 22.2 17.56 22.34 17.62C22.48 17.69 22.58 17.78 22.65 17.89C22.72 18 22.76 18.13 22.76 18.27C22.76 18.38 22.74 18.48 22.7 18.57C22.66 18.66 22.6 18.74 22.52 18.81C22.44 18.88 22.34 18.93 22.23 18.97C22.11 19.01 21.98 19.03 21.83 19.03L20.78 19.03L20.78 16.74L21.2 16.74L21.2 18.71L21.83 18.71C21.96 18.71 22.05 18.69 22.13 18.65C22.2 18.61 22.25 18.55 22.28 18.49C22.32 18.42 22.33 18.36 22.33 18.29C22.33 18.22 22.32 18.15 22.28 18.08C22.25 18.02 22.2 17.96 22.13 17.92C22.05 17.87 21.96 17.85 21.83 17.85L21.09 17.85L21.09 17.53ZM24.96 17.73L24.96 18.05L23.66 18.05L23.66 17.73L24.96 17.73ZM23.74 16.74L23.74 19.03L23.32 19.03L23.32 16.74L23.74 16.74ZM25.31 16.74L25.31 19.03L24.88 19.03L24.88 16.74L25.31 16.74ZM27.44 18.64L27.44 17.46C27.44 17.37 27.42 17.29 27.38 17.23C27.35 17.16 27.29 17.1 27.21 17.07C27.13 17.03 27.04 17.01 26.92 17.01C26.82 17.01 26.72 17.03 26.64 17.06C26.56 17.1 26.5 17.14 26.46 17.2C26.41 17.25 26.39 17.31 26.39 17.38L25.97 17.38C25.97 17.29 25.99 17.21 26.03 17.13C26.08 17.05 26.15 16.98 26.23 16.91C26.32 16.85 26.42 16.79 26.54 16.76C26.66 16.72 26.8 16.7 26.95 16.7C27.13 16.7 27.29 16.73 27.42 16.78C27.56 16.84 27.67 16.92 27.75 17.04C27.83 17.15 27.87 17.29 27.87 17.46L27.87 18.53C27.87 18.61 27.87 18.69 27.89 18.77C27.9 18.86 27.93 18.93 27.95 19L27.95 19.03L27.51 19.03C27.49 18.99 27.48 18.93 27.46 18.85C27.45 18.77 27.44 18.7 27.44 18.64ZM27.52 17.64L27.52 17.92L27.09 17.92C26.97 17.92 26.87 17.93 26.77 17.94C26.68 17.96 26.6 17.99 26.54 18.02C26.47 18.06 26.42 18.1 26.39 18.16C26.36 18.21 26.34 18.27 26.34 18.34C26.34 18.41 26.36 18.48 26.39 18.54C26.43 18.6 26.48 18.64 26.55 18.68C26.62 18.71 26.71 18.73 26.81 18.73C26.94 18.73 27.06 18.71 27.15 18.65C27.25 18.6 27.33 18.54 27.39 18.47C27.45 18.39 27.48 18.32 27.49 18.25L27.67 18.44C27.66 18.5 27.63 18.57 27.58 18.64C27.53 18.71 27.47 18.78 27.39 18.85C27.31 18.91 27.22 18.97 27.11 19.01C27 19.05 26.88 19.07 26.75 19.07C26.58 19.07 26.44 19.04 26.31 18.98C26.18 18.92 26.09 18.84 26.02 18.74C25.95 18.64 25.91 18.52 25.91 18.39C25.91 18.27 25.94 18.16 25.99 18.07C26.04 17.98 26.12 17.9 26.21 17.83C26.31 17.77 26.43 17.72 26.57 17.69C26.7 17.66 26.86 17.64 27.03 17.64L27.52 17.64ZM31.34 16.74L31.34 17.06L30.09 17.06L30.09 16.74L31.34 16.74ZM30.15 16.74L30.15 19.03L29.73 19.03L29.73 16.74L30.15 16.74ZM31.72 16.74L31.72 19.03L31.29 19.03L31.29 16.74L31.72 16.74ZM34.05 16.74L34.05 17.06L32.85 17.06L32.85 16.74L34.05 16.74ZM34.42 16.74L34.42 19.03L34 19.03L34 16.74L34.42 16.74ZM32.75 16.74L33.17 16.74L33.11 17.84C33.1 18.02 33.08 18.17 33.06 18.3C33.04 18.43 33 18.54 32.96 18.63C32.92 18.73 32.87 18.8 32.81 18.86C32.75 18.92 32.68 18.96 32.6 18.99C32.51 19.02 32.42 19.03 32.31 19.03L32.17 19.03L32.17 18.69L32.27 18.68C32.33 18.67 32.39 18.66 32.43 18.64C32.48 18.61 32.52 18.58 32.55 18.53C32.58 18.48 32.61 18.42 32.63 18.35C32.65 18.27 32.67 18.18 32.68 18.08C32.69 17.98 32.7 17.86 32.7 17.72L32.75 16.74ZM36.56 18.64L36.56 17.46C36.56 17.37 36.54 17.29 36.5 17.23C36.46 17.16 36.41 17.1 36.33 17.07C36.25 17.03 36.15 17.01 36.04 17.01C35.93 17.01 35.84 17.03 35.76 17.06C35.68 17.1 35.62 17.14 35.57 17.2C35.53 17.25 35.5 17.31 35.5 17.38L35.08 17.38C35.08 17.29 35.1 17.21 35.15 17.13C35.2 17.05 35.26 16.98 35.35 16.91C35.43 16.85 35.54 16.79 35.66 16.76C35.78 16.72 35.91 16.7 36.06 16.7C36.24 16.7 36.4 16.73 36.54 16.78C36.68 16.84 36.79 16.92 36.86 17.04C36.94 17.15 36.98 17.29 36.98 17.46L36.98 18.53C36.98 18.61 36.99 18.69 37 18.77C37.02 18.86 37.04 18.93 37.07 19L37.07 19.03L36.63 19.03C36.61 18.99 36.59 18.93 36.58 18.85C36.57 18.77 36.56 18.7 36.56 18.64ZM36.63 17.64L36.64 17.92L36.21 17.92C36.09 17.92 35.98 17.93 35.89 17.94C35.79 17.96 35.71 17.99 35.65 18.02C35.59 18.06 35.54 18.1 35.5 18.16C35.47 18.21 35.45 18.27 35.45 18.34C35.45 18.41 35.47 18.48 35.51 18.54C35.54 18.6 35.59 18.64 35.66 18.68C35.74 18.71 35.82 18.73 35.93 18.73C36.06 18.73 36.17 18.71 36.27 18.65C36.37 18.6 36.45 18.54 36.51 18.47C36.57 18.39 36.6 18.32 36.6 18.25L36.78 18.44C36.77 18.5 36.74 18.57 36.7 18.64C36.65 18.71 36.58 18.78 36.51 18.85C36.43 18.91 36.33 18.97 36.23 19.01C36.12 19.05 36 19.07 35.87 19.07C35.7 19.07 35.55 19.04 35.42 18.98C35.3 18.92 35.2 18.84 35.13 18.74C35.06 18.64 35.03 18.52 35.03 18.39C35.03 18.27 35.05 18.16 35.11 18.07C35.16 17.98 35.23 17.9 35.33 17.83C35.43 17.77 35.55 17.72 35.68 17.69C35.82 17.66 35.97 17.64 36.14 17.64L36.63 17.64ZM38.62 16.74L38.62 19.03L38.2 19.03L38.2 16.74L38.62 16.74ZM39.45 16.74L39.45 17.06L37.38 17.06L37.38 16.74L39.45 16.74ZM40.33 16.74L40.33 19.03L39.9 19.03L39.9 16.74L40.33 16.74ZM39.87 16.13C39.87 16.07 39.89 16.01 39.93 15.97C39.97 15.93 40.04 15.91 40.12 15.91C40.2 15.91 40.26 15.93 40.3 15.97C40.35 16.01 40.37 16.07 40.37 16.13C40.37 16.19 40.35 16.25 40.3 16.29C40.26 16.33 40.2 16.35 40.12 16.35C40.04 16.35 39.97 16.33 39.93 16.29C39.89 16.25 39.87 16.19 39.87 16.13ZM41.75 18.03L40.82 16.74L41.33 16.74L41.97 17.69L42.46 17.69L42.4 18.03L41.75 18.03ZM41.98 17.99L41.27 19.03L40.73 19.03L41.72 17.71L41.98 17.99ZM42.68 16.74L42.68 19.03L42.25 19.03L42.25 16.74L42.68 16.74ZM44.12 16.74L43.18 18.03L42.54 18.03L42.47 17.69L42.97 17.69L43.61 16.74L44.12 16.74ZM43.67 19.03L42.95 17.99L43.22 17.71L44.2 19.03L43.67 19.03ZM46.27 17.73L46.27 18.05L44.96 18.05L44.96 17.73L46.27 17.73ZM45.05 16.74L45.05 19.03L44.63 19.03L44.63 16.74L45.05 16.74ZM46.61 16.74L46.61 19.03L46.19 19.03L46.19 16.74L46.61 16.74ZM48.75 18.64L48.75 17.46C48.75 17.37 48.73 17.29 48.69 17.23C48.66 17.16 48.6 17.1 48.52 17.07C48.44 17.03 48.35 17.01 48.23 17.01C48.12 17.01 48.03 17.03 47.95 17.06C47.87 17.1 47.81 17.14 47.76 17.2C47.72 17.25 47.7 17.31 47.7 17.38L47.27 17.38C47.27 17.29 47.3 17.21 47.34 17.13C47.39 17.05 47.45 16.98 47.54 16.91C47.63 16.85 47.73 16.79 47.85 16.76C47.97 16.72 48.11 16.7 48.26 16.7C48.44 16.7 48.6 16.73 48.73 16.78C48.87 16.84 48.98 16.92 49.06 17.04C49.14 17.15 49.18 17.29 49.18 17.46L49.18 18.53C49.18 18.61 49.18 18.69 49.2 18.77C49.21 18.86 49.23 18.93 49.26 19L49.26 19.03L48.82 19.03C48.8 18.99 48.78 18.93 48.77 18.85C48.76 18.77 48.75 18.7 48.75 18.64ZM48.83 17.64L48.83 17.92L48.4 17.92C48.28 17.92 48.18 17.93 48.08 17.94C47.99 17.96 47.91 17.99 47.84 18.02C47.78 18.06 47.73 18.1 47.7 18.16C47.66 18.21 47.65 18.27 47.65 18.34C47.65 18.41 47.66 18.48 47.7 18.54C47.73 18.6 47.79 18.64 47.86 18.68C47.93 18.71 48.02 18.73 48.12 18.73C48.25 18.73 48.36 18.71 48.46 18.65C48.56 18.6 48.64 18.54 48.7 18.47C48.76 18.39 48.79 18.32 48.79 18.25L48.97 18.44C48.96 18.5 48.94 18.57 48.89 18.64C48.84 18.71 48.78 18.78 48.7 18.85C48.62 18.91 48.53 18.97 48.42 19.01C48.31 19.05 48.19 19.07 48.06 19.07C47.89 19.07 47.74 19.04 47.62 18.98C47.49 18.92 47.39 18.84 47.32 18.74C47.26 18.64 47.22 18.52 47.22 18.39C47.22 18.27 47.25 18.16 47.3 18.07C47.35 17.98 47.43 17.9 47.52 17.83C47.62 17.77 47.74 17.72 47.87 17.69C48.01 17.66 48.17 17.64 48.33 17.64L48.83 17.64ZM51.99 18.75C52.09 18.75 52.19 18.73 52.27 18.69C52.36 18.66 52.43 18.6 52.48 18.54C52.54 18.47 52.57 18.39 52.58 18.31L52.98 18.31C52.97 18.44 52.92 18.57 52.83 18.69C52.74 18.8 52.62 18.9 52.47 18.97C52.33 19.04 52.17 19.07 51.99 19.07C51.81 19.07 51.64 19.04 51.5 18.98C51.37 18.92 51.25 18.84 51.16 18.73C51.07 18.63 51 18.5 50.96 18.37C50.91 18.23 50.89 18.08 50.89 17.93L50.89 17.84C50.89 17.69 50.91 17.54 50.96 17.41C51 17.27 51.07 17.14 51.16 17.04C51.25 16.93 51.37 16.85 51.5 16.79C51.64 16.73 51.81 16.7 51.99 16.7C52.19 16.7 52.35 16.73 52.5 16.81C52.64 16.88 52.76 16.98 52.84 17.1C52.92 17.23 52.97 17.37 52.98 17.53L52.58 17.53C52.57 17.43 52.54 17.35 52.49 17.27C52.44 17.19 52.37 17.13 52.29 17.09C52.2 17.04 52.1 17.02 51.99 17.02C51.86 17.02 51.75 17.04 51.66 17.09C51.58 17.14 51.51 17.2 51.46 17.28C51.41 17.36 51.37 17.45 51.35 17.55C51.33 17.64 51.32 17.74 51.32 17.84L51.32 17.93C51.32 18.03 51.33 18.13 51.35 18.23C51.37 18.32 51.4 18.41 51.46 18.49C51.51 18.57 51.58 18.63 51.66 18.68C51.75 18.73 51.86 18.75 51.99 18.75ZM53.91 18.41L55.05 16.74L55.48 16.74L55.48 19.03L55.05 19.03L55.05 17.36L53.91 19.03L53.49 19.03L53.49 16.74L53.91 16.74L53.91 18.41ZM57.14 18.75C57.25 18.75 57.34 18.73 57.42 18.69C57.51 18.66 57.58 18.6 57.63 18.54C57.69 18.47 57.72 18.39 57.73 18.31L58.13 18.31C58.12 18.44 58.07 18.57 57.98 18.69C57.89 18.8 57.77 18.9 57.63 18.97C57.48 19.04 57.32 19.07 57.14 19.07C56.96 19.07 56.8 19.04 56.66 18.98C56.52 18.92 56.41 18.84 56.31 18.73C56.22 18.63 56.16 18.5 56.11 18.37C56.07 18.23 56.04 18.08 56.04 17.93L56.04 17.84C56.04 17.69 56.07 17.54 56.11 17.41C56.16 17.27 56.22 17.14 56.31 17.04C56.41 16.93 56.52 16.85 56.66 16.79C56.8 16.73 56.96 16.7 57.14 16.7C57.34 16.7 57.51 16.73 57.65 16.81C57.8 16.88 57.91 16.98 57.99 17.1C58.08 17.23 58.12 17.37 58.13 17.53L57.73 17.53C57.72 17.43 57.69 17.35 57.64 17.27C57.59 17.19 57.52 17.13 57.44 17.09C57.36 17.04 57.26 17.02 57.14 17.02C57.01 17.02 56.91 17.04 56.82 17.09C56.73 17.14 56.66 17.2 56.61 17.28C56.56 17.36 56.52 17.45 56.5 17.55C56.48 17.64 56.47 17.74 56.47 17.84L56.47 17.93C56.47 18.03 56.48 18.13 56.5 18.23C56.52 18.32 56.56 18.41 56.61 18.49C56.66 18.57 56.73 18.63 56.82 18.68C56.9 18.73 57.01 18.75 57.14 18.75ZM59.61 16.74L59.61 19.03L59.19 19.03L59.19 16.74L59.61 16.74ZM60.44 16.74L60.44 17.06L58.37 17.06L58.37 16.74L60.44 16.74ZM61.7 19.07C61.53 19.07 61.37 19.05 61.23 18.99C61.09 18.94 60.98 18.86 60.87 18.76C60.78 18.66 60.7 18.55 60.65 18.41C60.59 18.27 60.57 18.13 60.57 17.97L60.57 17.88C60.57 17.69 60.6 17.52 60.66 17.38C60.71 17.23 60.79 17.11 60.9 17.01C61 16.91 61.12 16.83 61.25 16.78C61.37 16.72 61.51 16.7 61.65 16.7C61.82 16.7 61.98 16.73 62.1 16.78C62.23 16.84 62.34 16.92 62.42 17.02C62.5 17.12 62.57 17.24 62.6 17.38C62.64 17.51 62.66 17.66 62.66 17.82L62.66 18L60.82 18L60.82 17.68L62.24 17.68L62.24 17.65C62.24 17.54 62.21 17.45 62.17 17.35C62.13 17.25 62.07 17.17 61.99 17.11C61.91 17.05 61.79 17.02 61.65 17.02C61.55 17.02 61.46 17.04 61.38 17.08C61.3 17.11 61.23 17.17 61.17 17.24C61.12 17.32 61.07 17.41 61.04 17.51C61.01 17.62 60.99 17.74 60.99 17.88L60.99 17.97C60.99 18.08 61.01 18.18 61.04 18.27C61.07 18.37 61.12 18.45 61.18 18.52C61.25 18.59 61.32 18.65 61.41 18.69C61.51 18.73 61.61 18.75 61.72 18.75C61.87 18.75 62 18.73 62.1 18.67C62.21 18.61 62.3 18.54 62.38 18.44L62.63 18.63C62.58 18.71 62.51 18.78 62.43 18.84C62.35 18.91 62.25 18.97 62.12 19.01C62.01 19.05 61.87 19.07 61.7 19.07ZM64.58 18.51L65.42 16.74L65.83 16.74L64.73 19.03L64.43 19.03L63.34 16.74L63.74 16.74L64.58 18.51ZM63.62 16.74L63.62 19.03L63.2 19.03L63.2 16.74L63.62 16.74ZM65.53 19.03L65.53 16.74L65.95 16.74L65.95 19.03L65.53 19.03ZM68.09 18.64L68.09 17.46C68.09 17.37 68.07 17.29 68.03 17.23C67.99 17.16 67.94 17.1 67.86 17.07C67.78 17.03 67.68 17.01 67.57 17.01C67.46 17.01 67.37 17.03 67.29 17.06C67.21 17.1 67.15 17.14 67.1 17.2C67.06 17.25 67.04 17.31 67.04 17.38L66.61 17.38C66.61 17.29 66.63 17.21 66.68 17.13C66.73 17.05 66.79 16.98 66.88 16.91C66.96 16.85 67.07 16.79 67.19 16.76C67.31 16.72 67.45 16.7 67.59 16.7C67.77 16.7 67.93 16.73 68.07 16.78C68.21 16.84 68.32 16.92 68.39 17.04C68.47 17.15 68.51 17.29 68.51 17.46L68.51 18.53C68.51 18.61 68.52 18.69 68.53 18.77C68.55 18.86 68.57 18.93 68.6 19L68.6 19.03L68.16 19.03C68.14 18.99 68.12 18.93 68.11 18.85C68.1 18.77 68.09 18.7 68.09 18.64ZM68.16 17.64L68.17 17.92L67.74 17.92C67.62 17.92 67.51 17.93 67.42 17.94C67.32 17.96 67.25 17.99 67.18 18.02C67.12 18.06 67.07 18.1 67.04 18.16C67 18.21 66.98 18.27 66.98 18.34C66.98 18.41 67 18.48 67.04 18.54C67.07 18.6 67.12 18.64 67.2 18.68C67.27 18.71 67.35 18.73 67.46 18.73C67.59 18.73 67.7 18.71 67.8 18.65C67.9 18.6 67.98 18.54 68.04 18.47C68.1 18.39 68.13 18.32 68.13 18.25L68.31 18.44C68.3 18.5 68.27 18.57 68.23 18.64C68.18 18.71 68.12 18.78 68.04 18.85C67.96 18.91 67.87 18.97 67.76 19.01C67.65 19.05 67.53 19.07 67.4 19.07C67.23 19.07 67.08 19.04 66.96 18.98C66.83 18.92 66.73 18.84 66.66 18.74C66.59 18.64 66.56 18.52 66.56 18.39C66.56 18.27 66.58 18.16 66.64 18.07C66.69 17.98 66.76 17.9 66.86 17.83C66.96 17.77 67.08 17.72 67.21 17.69C67.35 17.66 67.5 17.64 67.67 17.64L68.16 17.64Z" fill="#828282" fill-opacity="1.000000" fill-rule="nonzero"/>
		<path id="Vector" d="M52.95 2.52L52.95 11.84L50.52 11.84L50.52 2.52L47.8 2.52L47.8 0.54L55.67 0.54L55.67 2.54L52.95 2.54L52.95 2.52Z" fill="#004A8F" fill-opacity="1.000000" fill-rule="nonzero"/>
		<path id="Vector" d="M9.76 0.52L9.76 11.84L7.33 11.84L7.33 2.52L2.45 2.52L2.45 11.84L0 11.84L0 0.52L9.76 0.52Z" fill="#004A8F" fill-opacity="1.000000" fill-rule="nonzero"/>
		<path id="Vector" d="M15.73 0.52C17.09 0.52 18.07 0.65 18.96 1.39C19.93 2.22 20.2 3.31 20.2 4.13C20.2 4.57 20.14 5.81 19.2 6.66C18.51 7.29 17.51 7.67 16.09 7.67L14.61 7.67L14.61 11.86L12.18 11.86L12.18 0.54L15.73 0.54L15.73 0.52ZM14.64 5.72L15.56 5.72C16 5.72 16.59 5.72 17.12 5.37C17.57 5.04 17.77 4.55 17.77 4.05C17.77 3.42 17.45 3.01 17.09 2.76C16.59 2.43 15.97 2.41 15.41 2.41L14.64 2.41L14.64 5.72Z" fill="#004A8F" fill-opacity="1.000000" fill-rule="nonzero"/>
		<path id="Vector" d="M45.38 11.42C44.64 11.78 43.66 12.08 42.36 12.08C40.23 12.08 38.93 11.4 37.89 10.49C36.47 9.23 35.94 7.83 35.94 6.16C35.94 4.11 36.86 2.63 37.89 1.75C39.1 0.68 40.64 0.27 42.39 0.27C43.25 0.27 44.28 0.41 45.38 0.95L45.38 3.53C44.25 2.35 42.86 2.27 42.42 2.27C39.96 2.27 38.36 4.13 38.36 6.22C38.36 8.74 40.46 10.08 42.51 10.08C43.63 10.08 44.64 9.62 45.38 8.85L45.38 11.42Z" fill="#004A8F" fill-opacity="1.000000" fill-rule="nonzero"/>
		<path id="Vector" d="M60.55 0.52L60.55 11.84L58.13 11.84L58.13 0.52L60.55 0.52Z" fill="#004A8F" fill-opacity="1.000000" fill-rule="nonzero"/>
		<path id="Vector" d="M66.53 0.52C67.89 0.52 68.86 0.65 69.75 1.39C70.73 2.22 70.99 3.31 70.99 4.13C70.99 4.57 70.94 5.81 69.99 6.66C69.31 7.29 68.3 7.67 66.88 7.67L65.4 7.67L65.4 11.86L62.98 11.86L62.98 0.54L66.53 0.54L66.53 0.52ZM65.43 5.72L66.35 5.72C66.79 5.72 67.39 5.72 67.92 5.37C68.36 5.04 68.57 4.55 68.57 4.05C68.57 3.42 68.24 3.01 67.89 2.76C67.39 2.43 66.76 2.41 66.2 2.41L65.43 2.41L65.43 5.72Z" fill="#004A8F" fill-opacity="1.000000" fill-rule="nonzero"/>
		<path id="Vector" d="M26.83 6.22C26.83 5.56 27.39 5.07 28.07 5.07C28.75 5.07 29.31 5.59 29.31 6.22C29.31 6.85 28.75 7.37 28.1 7.37L28.1 8.9C29.7 8.9 31 7.7 31 6.22C31 4.74 29.7 3.53 28.1 3.53C26.5 3.53 25.2 4.74 25.2 6.22C25.2 6.22 25.2 6.22 25.2 6.24L26.83 6.24L26.83 6.22Z" fill="#FECA08" fill-opacity="1.000000" fill-rule="nonzero"/>
		<path id="Vector" d="M32.36 4.22C32.69 4.79 32.83 5.45 32.83 6.16C32.83 8.6 30.7 10.58 28.07 10.58C25.44 10.58 23.31 8.6 23.31 6.16C23.31 3.81 25.29 1.89 27.8 1.75L28.99 0.05C28.69 0.02 28.4 0 28.07 0C24.4 0 21.41 2.76 21.41 6.16C21.41 9.56 24.4 12.33 28.07 12.33C31.74 12.33 34.73 9.56 34.73 6.16C34.73 4.85 34.28 3.61 33.51 2.6L32.36 4.22Z" fill="#004A8F" fill-opacity="1.000000" fill-rule="nonzero"/>
	</g>
</svg>
