<svg width="42.000000" height="38.250000" viewBox="0 0 42 38.25" fill="none" xmlns="http://www.w3.org/2000/svg" xmlns:xlink="http://www.w3.org/1999/xlink">
	<desc>
			Created with Pixso.
	</desc>
	<defs/>
	<path id="Vector" d="M19 29L23 33C23.39 33.4 23.86 33.71 24.37 33.92C24.89 34.14 25.44 34.25 26 34.25C26.55 34.25 27.1 34.14 27.62 33.92C28.13 33.71 28.6 33.4 29 33C29.39 32.61 29.7 32.14 29.91 31.63C30.13 31.11 30.24 30.56 30.24 30C30.24 29.45 30.13 28.89 29.91 28.38C29.7 27.86 29.39 27.4 29 27M25 23L30 28C30.79 28.8 31.87 29.25 33 29.25C34.12 29.25 35.2 28.8 36 28C36.79 27.21 37.24 26.13 37.24 25C37.24 23.88 36.79 22.8 36 22L28.24 14.24C27.11 13.12 25.59 12.49 24 12.49C22.41 12.49 20.88 13.12 19.76 14.24L18 16C17.2 16.8 16.12 17.25 15 17.25C13.87 17.25 12.79 16.8 12 16C11.2 15.21 10.75 14.13 10.75 13C10.75 11.88 11.2 10.8 12 10L17.62 4.38C19.44 2.56 21.82 1.4 24.38 1.09C26.93 0.77 29.52 1.32 31.74 2.64L32.68 3.2C33.53 3.72 34.54 3.9 35.52 3.7L39 3M39 1L41 23L37 23M3 1L1 23L14 36C14.79 36.8 15.87 37.25 17 37.25C18.12 37.25 19.2 36.8 20 36C20.79 35.21 21.24 34.13 21.24 33C21.24 31.88 20.79 30.8 20 30M3 3L19 3" stroke="#F1F1F1" stroke-opacity="1.000000" stroke-width="2.000000" stroke-linejoin="round" stroke-linecap="round"/>
</svg>
