<svg width="19.142578" height="18.222656" viewBox="0 0 19.1426 18.2227" fill="none" xmlns="http://www.w3.org/2000/svg" xmlns:xlink="http://www.w3.org/1999/xlink">
	<desc>
			Created with Pixso.
	</desc>
	<defs/>
	<path id="Star 1" d="M9.38 0.13L7.25 6.66C7.23 6.75 7.15 6.8 7.06 6.8L0.2 6.8C0 6.8 -0.08 7.05 0.08 7.16L5.63 11.2C5.7 11.25 5.73 11.34 5.71 11.42L3.58 17.96C3.53 18.14 3.74 18.29 3.89 18.18L9.45 14.14C9.52 14.09 9.61 14.09 9.68 14.14L15.24 18.18C15.4 18.29 15.61 18.14 15.55 17.96L13.43 11.42C13.4 11.34 13.43 11.25 13.5 11.2L19.05 7.16C19.21 7.05 19.13 6.8 18.94 6.8L12.07 6.8C11.98 6.8 11.91 6.75 11.88 6.66L9.76 0.13C9.7 -0.05 9.44 -0.05 9.38 0.13Z" fill="#C58811" fill-opacity="1.000000" fill-rule="evenodd"/>
</svg>
